<svg width="24" height="32" viewBox="0 0 24 32" fill="none" xmlns="http://www.w3.org/2000/svg">
<path d="M8.27863 22.2018L12.0008 19.3628L15.7229 22.2018L14.3271 17.5213L17.8166 15.0659H13.4741L12.0008 10.3086L10.5274 15.0659H6.18493L9.67444 17.5213L8.27863 22.2018ZM12.0008 21.3118L7.30622 24.849C7.14079 24.9616 6.97485 25.0112 6.80839 24.9979C6.64192 24.9846 6.4889 24.938 6.34932 24.8582C6.20974 24.7784 6.10376 24.6582 6.03139 24.4976C5.95901 24.337 5.95746 24.1666 6.02674 23.9866L7.81957 18.1581L3.36075 14.9738C3.18292 14.8715 3.07177 14.737 3.02731 14.5702C2.98285 14.4024 2.99267 14.2372 3.05678 14.0745C3.11985 13.9109 3.21652 13.7794 3.34679 13.6802C3.47604 13.5809 3.63112 13.5313 3.81206 13.5313H9.42319L11.2408 7.58162C11.306 7.39439 11.4057 7.25116 11.5402 7.15193C11.6746 7.05064 11.8276 7 11.9992 7C12.1709 7 12.3239 7.05013 12.4583 7.15039C12.5927 7.25065 12.6925 7.39439 12.7576 7.58162L14.5753 13.5313H20.1864C20.3684 13.5313 20.524 13.5809 20.6532 13.6802C20.7835 13.7794 20.8802 13.9109 20.9432 14.0745C21.0073 14.2382 21.0171 14.4035 20.9727 14.5702C20.9282 14.737 20.8171 14.872 20.6392 14.9754L16.1804 18.1581L17.9733 23.9866C18.0425 24.1677 18.041 24.338 17.9686 24.4976C17.8962 24.6572 17.7903 24.7774 17.6507 24.8582C17.5111 24.9391 17.3581 24.9856 17.1916 24.9979C17.0252 25.0102 16.8592 24.9606 16.6938 24.849L12.0008 21.3118Z" fill="white" fill-opacity="0.8"/>
<path d="M16.9326 10.4455L19.0004 8.86823L21.0683 10.4455L20.2928 7.84515L22.2315 6.48106H19.819L19.0004 3.83812L18.1819 6.48106H15.7694L17.708 7.84515L16.9326 10.4455ZM19.0004 9.95098L16.3923 11.9161C16.3004 11.9787 16.2082 12.0062 16.1158 11.9988C16.0233 11.9914 15.9383 11.9656 15.8607 11.9212C15.7832 11.8769 15.7243 11.8101 15.6841 11.7209C15.6439 11.6317 15.643 11.537 15.6815 11.437L16.6775 8.19897L14.2004 6.4299C14.1016 6.37307 14.0399 6.29833 14.0152 6.20568C13.9905 6.11247 13.9959 6.02068 14.0315 5.9303C14.0666 5.83936 14.1203 5.76633 14.1927 5.7112C14.2645 5.65606 14.3506 5.6285 14.4511 5.6285H17.5684L18.5782 2.32312C18.6144 2.21911 18.6699 2.13954 18.7445 2.0844C18.8192 2.02813 18.9042 2 18.9996 2C19.0949 2 19.1799 2.02785 19.2546 2.08355C19.3293 2.13925 19.3847 2.21911 19.4209 2.32312L20.4307 5.6285H23.548C23.6491 5.6285 23.7355 5.65606 23.8073 5.7112C23.8797 5.76633 23.9334 5.83936 23.9685 5.9303C24.0041 6.02124 24.0095 6.11304 23.9848 6.20568C23.9601 6.29833 23.8984 6.37335 23.7996 6.43076L21.3225 8.19897L22.3185 11.437C22.357 11.5376 22.3561 11.6322 22.3159 11.7209C22.2757 11.8096 22.2168 11.8763 22.1393 11.9212C22.0617 11.9661 21.9767 11.992 21.8842 11.9988C21.7918 12.0056 21.6996 11.9781 21.6077 11.9161L19.0004 9.95098Z" fill="white" fill-opacity="0.8"/>
</svg>
