<svg width="32" height="32" viewBox="0 0 32 32" fill="none" xmlns="http://www.w3.org/2000/svg">
<path d="M4.6665 16C4.6665 12.9942 5.86055 10.1116 7.98596 7.98614C10.1114 5.86073 12.9941 4.66669 15.9998 4.66669C19.0056 4.66669 21.8883 5.86073 24.0137 7.98614C26.1391 10.1116 27.3332 12.9942 27.3332 16V18.6667H24.3332C24.068 18.6667 23.8136 18.772 23.6261 18.9596C23.4385 19.1471 23.3332 19.4015 23.3332 19.6667V28.3334C23.3332 28.8854 23.7812 29.3334 24.3332 29.3334H25.3332C26.394 29.3334 27.4115 28.9119 28.1616 28.1618C28.9117 27.4116 29.3332 26.3942 29.3332 25.3334V16C29.3332 8.63602 23.3638 2.66669 15.9998 2.66669C8.63584 2.66669 2.6665 8.63602 2.6665 16V25.3334C2.6665 26.3942 3.08793 27.4116 3.83808 28.1618C4.58822 28.9119 5.60564 29.3334 6.6665 29.3334H7.6665C7.93172 29.3334 8.18607 29.228 8.37361 29.0405C8.56115 28.8529 8.6665 28.5986 8.6665 28.3334V19.6667C8.6665 19.4015 8.56115 19.1471 8.37361 18.9596C8.18607 18.772 7.93172 18.6667 7.6665 18.6667H4.6665V16ZM11.6665 18.6667C11.9317 18.6667 12.1861 18.772 12.3736 18.9596C12.5611 19.1471 12.6665 19.4015 12.6665 19.6667V25.6667C12.6665 25.9319 12.5611 26.1863 12.3736 26.3738C12.1861 26.5613 11.9317 26.6667 11.6665 26.6667C11.4013 26.6667 11.1469 26.5613 10.9594 26.3738C10.7719 26.1863 10.6665 25.9319 10.6665 25.6667V19.6667C10.6665 19.4015 10.7719 19.1471 10.9594 18.9596C11.1469 18.772 11.4013 18.6667 11.6665 18.6667ZM21.3332 19.6667C21.3332 19.4015 21.2278 19.1471 21.0403 18.9596C20.8527 18.772 20.5984 18.6667 20.3332 18.6667C20.068 18.6667 19.8136 18.772 19.6261 18.9596C19.4385 19.1471 19.3332 19.4015 19.3332 19.6667V25.6667C19.3332 25.9319 19.4385 26.1863 19.6261 26.3738C19.8136 26.5613 20.068 26.6667 20.3332 26.6667C20.5984 26.6667 20.8527 26.5613 21.0403 26.3738C21.2278 26.1863 21.3332 25.9319 21.3332 25.6667V19.6667Z" fill="#1E1E1E"/>
</svg>
