<svg width="24" height="24" viewBox="0 0 24 24" fill="none" xmlns="http://www.w3.org/2000/svg">
<path d="M8.27863 18.2018L12.0008 15.3628L15.7229 18.2018L14.3271 13.5213L17.8166 11.0659H13.4741L12.0008 6.30862L10.5274 11.0659H6.18493L9.67444 13.5213L8.27863 18.2018ZM12.0008 17.3118L7.30622 20.849C7.14079 20.9616 6.97485 21.0112 6.80839 20.9979C6.64192 20.9846 6.4889 20.938 6.34932 20.8582C6.20974 20.7784 6.10376 20.6582 6.03139 20.4976C5.95901 20.337 5.95746 20.1666 6.02674 19.9866L7.81957 14.1581L3.36075 10.9738C3.18292 10.8715 3.07177 10.737 3.02731 10.5702C2.98285 10.4024 2.99267 10.2372 3.05678 10.0745C3.11985 9.91085 3.21652 9.77939 3.34679 9.68015C3.47604 9.58091 3.63112 9.53129 3.81206 9.53129H9.42319L11.2408 3.58162C11.306 3.39439 11.4057 3.25116 11.5402 3.15193C11.6746 3.05064 11.8276 3 11.9992 3C12.1709 3 12.3239 3.05013 12.4583 3.15039C12.5927 3.25065 12.6925 3.39439 12.7576 3.58162L14.5753 9.53129H20.1864C20.3684 9.53129 20.524 9.58091 20.6532 9.68015C20.7835 9.77939 20.8802 9.91085 20.9432 10.0745C21.0073 10.2382 21.0171 10.4035 20.9727 10.5702C20.9282 10.737 20.8171 10.872 20.6392 10.9754L16.1804 14.1581L17.9733 19.9866C18.0425 20.1677 18.041 20.338 17.9686 20.4976C17.8962 20.6572 17.7903 20.7774 17.6507 20.8582C17.5111 20.9391 17.3581 20.9856 17.1916 20.9979C17.0252 21.0102 16.8592 20.9606 16.6938 20.849L12.0008 17.3118Z" fill="white" fill-opacity="0.8"/>
</svg>
