<svg width="24" height="24" viewBox="0 0 24 24" fill="none" xmlns="http://www.w3.org/2000/svg">
<path fill-rule="evenodd" clip-rule="evenodd" d="M18.884 14.469C19.0119 14.2486 19.219 14.0854 19.4632 14.0126C19.7073 13.9397 19.9701 13.9629 20.1978 14.0772C20.4254 14.1916 20.6009 14.3885 20.6883 14.6279C20.7757 14.8672 20.7684 15.1308 20.668 15.365L20.616 15.469L20.281 16.049C20.4809 16.2834 20.6434 16.5471 20.763 16.831L20.829 17H21.5C21.7549 17.0003 22 17.0979 22.1854 17.2728C22.3707 17.4478 22.4822 17.687 22.4972 17.9414C22.5121 18.1958 22.4293 18.4464 22.2657 18.6418C22.1021 18.8373 21.8701 18.9629 21.617 18.993L21.5 19H20.829C20.7311 19.2774 20.593 19.5388 20.419 19.776L20.281 19.95L20.616 20.531C20.7446 20.752 20.7836 21.0138 20.7251 21.2627C20.6667 21.5116 20.5151 21.7286 20.3015 21.8692C20.088 22.0098 19.8287 22.0632 19.5769 22.0185C19.3252 21.9739 19.1001 21.8345 18.948 21.629L18.884 21.531L18.549 20.951C18.256 21.005 17.959 21.014 17.669 20.981L17.452 20.949L17.116 21.531C16.9881 21.7514 16.781 21.9146 16.5368 21.9874C16.2927 22.0603 16.0299 22.0371 15.8022 21.9228C15.5746 21.8084 15.3991 21.6115 15.3117 21.3721C15.2243 21.1328 15.2316 20.8692 15.332 20.635L15.384 20.531L15.719 19.95C15.5193 19.7162 15.3568 19.4532 15.237 19.17L15.171 19H14.5C14.2451 18.9997 14 18.9021 13.8146 18.7272C13.6293 18.5522 13.5178 18.313 13.5028 18.0586C13.4879 17.8042 13.5707 17.5536 13.7343 17.3582C13.8979 17.1627 14.1299 17.0371 14.383 17.007L14.5 17H15.172C15.2699 16.7226 15.408 16.4612 15.582 16.224L15.719 16.05L15.384 15.469C15.2554 15.248 15.2164 14.9862 15.2749 14.7373C15.3333 14.4884 15.4849 14.2714 15.6985 14.1308C15.912 13.9902 16.1713 13.9368 16.4231 13.9815C16.6748 14.0261 16.8999 14.1655 17.052 14.371L17.116 14.469L17.451 15.049C17.744 14.995 18.041 14.986 18.331 15.019L18.548 15.05L18.884 14.469ZM11 13C11.4473 13 11.886 13.0233 12.316 13.07C12.5798 13.098 12.8216 13.2296 12.9883 13.4359C13.155 13.6422 13.233 13.9062 13.205 14.17C13.177 14.4338 13.0454 14.6756 12.8391 14.8423C12.6328 15.009 12.3688 15.087 12.105 15.059C11.7443 15.0197 11.376 15 11 15C8.977 15 7.157 15.59 5.864 16.379C5.217 16.773 4.729 17.201 4.414 17.601C4.09 18.011 4 18.321 4 18.5C4 18.622 4.037 18.751 4.255 18.926C4.504 19.126 4.937 19.333 5.599 19.508C6.917 19.858 8.811 20 11 20L11.658 19.995C11.9232 19.9914 12.179 20.0933 12.3691 20.2783C12.5591 20.4634 12.6679 20.7163 12.6715 20.9815C12.6751 21.2467 12.5732 21.5025 12.3882 21.6926C12.2031 21.8826 11.9502 21.9914 11.685 21.995L11 22C8.771 22 6.665 21.86 5.087 21.442C4.302 21.234 3.563 20.936 3.003 20.486C2.41 20.01 2 19.345 2 18.5C2 17.713 2.358 16.977 2.844 16.361C3.338 15.736 4.021 15.161 4.822 14.671C6.425 13.695 8.605 13 11 13ZM18 17C17.7348 17 17.4804 17.1054 17.2929 17.2929C17.1054 17.4804 17 17.7348 17 18C17 18.2652 17.1054 18.5196 17.2929 18.7071C17.4804 18.8946 17.7348 19 18 19C18.2652 19 18.5196 18.8946 18.7071 18.7071C18.8946 18.5196 19 18.2652 19 18C19 17.7348 18.8946 17.4804 18.7071 17.2929C18.5196 17.1054 18.2652 17 18 17ZM11 2C12.3261 2 13.5979 2.52678 14.5355 3.46447C15.4732 4.40215 16 5.67392 16 7C16 8.32608 15.4732 9.59785 14.5355 10.5355C13.5979 11.4732 12.3261 12 11 12C9.67392 12 8.40215 11.4732 7.46447 10.5355C6.52678 9.59785 6 8.32608 6 7C6 5.67392 6.52678 4.40215 7.46447 3.46447C8.40215 2.52678 9.67392 2 11 2ZM11 4C10.606 4 10.2159 4.0776 9.85195 4.22836C9.48797 4.37913 9.15726 4.6001 8.87868 4.87868C8.6001 5.15726 8.37913 5.48797 8.22836 5.85195C8.0776 6.21593 8 6.60603 8 7C8 7.39397 8.0776 7.78407 8.22836 8.14805C8.37913 8.51203 8.6001 8.84274 8.87868 9.12132C9.15726 9.3999 9.48797 9.62087 9.85195 9.77164C10.2159 9.9224 10.606 10 11 10C11.7956 10 12.5587 9.68393 13.1213 9.12132C13.6839 8.55871 14 7.79565 14 7C14 6.20435 13.6839 5.44129 13.1213 4.87868C12.5587 4.31607 11.7956 4 11 4Z" fill="black" fill-opacity="0.7"/>
</svg>
