<svg width="24" height="24" viewBox="0 0 24 24" fill="none" xmlns="http://www.w3.org/2000/svg">
<path d="M7.72 16.456L9.481 15.948L20.084 5.21797C20.1676 5.13226 20.2142 5.0171 20.2136 4.89735C20.2131 4.77761 20.1654 4.66288 20.081 4.57797L19.446 3.93597C19.405 3.89381 19.3559 3.86024 19.3018 3.83723C19.2477 3.81421 19.1895 3.80222 19.1306 3.80194C19.0718 3.80166 19.0135 3.8131 18.9591 3.8356C18.9048 3.8581 18.8554 3.8912 18.814 3.93297L8.239 14.635L7.72 16.456ZM20.703 2.66397L21.338 3.30697C22.214 4.19397 22.222 5.62497 21.354 6.50297L10.428 17.561L6.664 18.645C6.55021 18.677 6.43123 18.6862 6.31386 18.6722C6.1965 18.6582 6.08303 18.6212 5.97996 18.5634C5.87688 18.5055 5.78621 18.4279 5.71313 18.335C5.64004 18.2421 5.58597 18.1358 5.554 18.022C5.50496 17.857 5.50426 17.6814 5.552 17.516L6.647 13.676L17.544 2.64697C17.7512 2.43833 17.9979 2.27303 18.2696 2.16072C18.5414 2.04841 18.8328 1.99134 19.1269 1.99283C19.4209 1.99432 19.7117 2.05434 19.9823 2.1694C20.2529 2.28445 20.4979 2.45324 20.703 2.66397ZM9.184 3.81697C9.68 3.81697 10.082 4.22397 10.082 4.72597C10.0828 4.84464 10.0602 4.9623 10.0155 5.07222C9.97076 5.18215 9.90481 5.28218 9.82141 5.3666C9.73801 5.45102 9.63879 5.51818 9.52942 5.56423C9.42004 5.61028 9.30267 5.63431 9.184 5.63497H5.592C4.6 5.63497 3.796 6.44897 3.796 7.45197V18.358C3.796 19.362 4.6 20.176 5.592 20.176H16.368C17.36 20.176 18.165 19.362 18.165 18.358V14.723C18.165 14.221 18.567 13.814 19.063 13.814C19.559 13.814 19.961 14.221 19.961 14.724V18.358C19.961 20.366 18.352 21.994 16.368 21.994H5.592C3.608 21.994 2 20.366 2 18.358V7.45197C2 5.44497 3.608 3.81697 5.592 3.81697H9.184Z" fill="black" fill-opacity="0.8"/>
</svg>
